<svg xmlns="http://www.w3.org/2000/svg" xmlns:xlink="http://www.w3.org/1999/xlink" width="500" zoomAndPan="magnify" viewBox="0 0 375 374.999991" height="500" preserveAspectRatio="xMidYMid meet" version="1.2"><defs/><g id="867e2385fa"><g style="fill:#b8c7ff;fill-opacity:1;"><g transform="translate(18.549, 196.499987)"><path style="stroke:none" d="M 32.84375 -29.578125 C 34.039062 -29.578125 34.851562 -29.191406 35.28125 -28.421875 C 35.664062 -27.753906 35.859375 -26.59375 35.859375 -24.9375 L 35.859375 -1.21875 C 35.859375 -0.664062 35.722656 -0.316406 35.453125 -0.171875 C 35.191406 -0.0351562 34.976562 0.03125 34.8125 0.03125 L 31.734375 0.03125 C 31.585938 0.03125 31.378906 -0.0351562 31.109375 -0.171875 C 30.847656 -0.316406 30.71875 -0.664062 30.71875 -1.21875 L 30.71875 -22.796875 C 30.71875 -22.816406 30.71875 -22.832031 30.71875 -22.84375 C 30.71875 -22.851562 30.71875 -22.859375 30.71875 -22.859375 L 30.546875 -22.859375 C 30.492188 -22.859375 30.46875 -22.835938 30.46875 -22.796875 L 24.296875 -7.578125 C 24.054688 -6.828125 23.804688 -6.179688 23.546875 -5.640625 C 23.421875 -5.367188 23.28125 -5.125 23.125 -4.90625 C 22.96875 -4.695312 22.820312 -4.5 22.6875 -4.3125 C 22.320312 -3.925781 21.9375 -3.660156 21.53125 -3.515625 C 21.144531 -3.367188 20.664062 -3.296875 20.09375 -3.296875 L 18.625 -3.296875 C 18.101562 -3.296875 17.625 -3.367188 17.1875 -3.515625 C 16.976562 -3.585938 16.78125 -3.695312 16.59375 -3.84375 C 16.414062 -3.988281 16.234375 -4.144531 16.046875 -4.3125 C 15.734375 -4.6875 15.445312 -5.128906 15.1875 -5.640625 C 14.945312 -6.179688 14.691406 -6.828125 14.421875 -7.578125 L 8.296875 -22.75 C 8.265625 -22.820312 8.226562 -22.859375 8.1875 -22.859375 L 8 -22.859375 C 8 -22.859375 8 -22.851562 8 -22.84375 C 8 -22.832031 8 -22.816406 8 -22.796875 L 8 -1.21875 C 8 -0.664062 7.875 -0.316406 7.625 -0.171875 C 7.375 -0.0351562 7.164062 0.03125 7 0.03125 L 3.90625 0.03125 C 3.738281 0.03125 3.523438 -0.0351562 3.265625 -0.171875 C 3.003906 -0.316406 2.875 -0.664062 2.875 -1.21875 L 2.875 -24.9375 C 2.875 -26.59375 3.066406 -27.753906 3.453125 -28.421875 C 3.878906 -29.191406 4.703125 -29.578125 5.921875 -29.578125 L 9.21875 -29.578125 C 9.75 -29.578125 10.171875 -29.53125 10.484375 -29.4375 C 10.890625 -29.3125 11.222656 -29.128906 11.484375 -28.890625 C 11.609375 -28.742188 11.734375 -28.585938 11.859375 -28.421875 C 11.992188 -28.253906 12.109375 -28.0625 12.203125 -27.84375 C 12.296875 -27.632812 12.394531 -27.390625 12.5 -27.109375 C 12.613281 -26.835938 12.71875 -26.535156 12.8125 -26.203125 L 19.125 -10.34375 C 19.15625 -10.269531 19.179688 -10.222656 19.203125 -10.203125 C 19.222656 -10.191406 19.234375 -10.1875 19.234375 -10.1875 L 19.59375 -10.1875 C 19.644531 -10.1875 19.679688 -10.238281 19.703125 -10.34375 L 26.0625 -26.203125 C 26.175781 -26.535156 26.28125 -26.835938 26.375 -27.109375 C 26.46875 -27.390625 26.566406 -27.632812 26.671875 -27.84375 C 26.785156 -28.0625 26.898438 -28.253906 27.015625 -28.421875 C 27.140625 -28.585938 27.265625 -28.742188 27.390625 -28.890625 C 27.671875 -29.148438 27.992188 -29.332031 28.359375 -29.4375 C 28.660156 -29.53125 29.078125 -29.578125 29.609375 -29.578125 Z M 32.84375 -29.578125 "/></g></g><g style="fill:#b8c7ff;fill-opacity:1;"><g transform="translate(66.433469, 196.499987)"><path style="stroke:none" d="M 24.4375 -6.421875 C 24.601562 -6.421875 24.816406 -6.351562 25.078125 -6.21875 C 25.347656 -6.09375 25.484375 -5.753906 25.484375 -5.203125 L 25.484375 -1.25 C 25.484375 -0.707031 25.347656 -0.367188 25.078125 -0.234375 C 24.816406 -0.0976562 24.601562 -0.03125 24.4375 -0.03125 L 11.703125 -0.03125 C 10.910156 -0.03125 10.175781 -0.078125 9.5 -0.171875 C 8.832031 -0.273438 8.226562 -0.429688 7.6875 -0.640625 C 6.507812 -1.046875 5.570312 -1.707031 4.875 -2.625 C 4.15625 -3.550781 3.644531 -4.722656 3.34375 -6.140625 C 3.21875 -6.734375 3.113281 -7.390625 3.03125 -8.109375 C 2.945312 -8.828125 2.894531 -9.601562 2.875 -10.4375 L 2.875 -10.625 L 2.9375 -15.140625 C 3.007812 -15.410156 3.144531 -15.710938 3.34375 -16.046875 C 3.863281 -16.972656 4.675781 -17.472656 5.78125 -17.546875 L 24.296875 -17.59375 C 24.441406 -17.59375 24.644531 -17.523438 24.90625 -17.390625 C 25.164062 -17.253906 25.296875 -16.910156 25.296875 -16.359375 L 25.296875 -13.53125 C 25.296875 -12.976562 25.164062 -12.628906 24.90625 -12.484375 C 24.644531 -12.347656 24.441406 -12.28125 24.296875 -12.28125 L 8.25 -12.28125 C 8.25 -12.28125 8.242188 -12.144531 8.234375 -11.875 C 8.222656 -11.613281 8.210938 -11.316406 8.203125 -10.984375 C 8.191406 -10.648438 8.1875 -10.347656 8.1875 -10.078125 C 8.1875 -9.816406 8.1875 -9.6875 8.1875 -9.6875 C 8.207031 -9.59375 8.21875 -9.488281 8.21875 -9.375 C 8.21875 -9.269531 8.226562 -9.171875 8.25 -9.078125 C 8.34375 -8.410156 8.546875 -7.875 8.859375 -7.46875 C 9.148438 -7.101562 9.507812 -6.835938 9.9375 -6.671875 C 10.207031 -6.597656 10.488281 -6.535156 10.78125 -6.484375 C 11.082031 -6.441406 11.425781 -6.421875 11.8125 -6.421875 Z M 6.03125 -17.265625 Z M 24.484375 -29.640625 C 24.617188 -29.640625 24.816406 -29.566406 25.078125 -29.421875 C 25.347656 -29.285156 25.484375 -28.941406 25.484375 -28.390625 L 25.484375 -25.546875 C 25.484375 -25.003906 25.347656 -24.660156 25.078125 -24.515625 C 24.816406 -24.367188 24.617188 -24.296875 24.484375 -24.296875 L 3.84375 -24.328125 C 3.695312 -24.328125 3.5 -24.394531 3.25 -24.53125 C 3 -24.664062 2.875 -25.003906 2.875 -25.546875 L 2.875 -28.359375 C 2.875 -28.929688 3 -29.285156 3.25 -29.421875 C 3.5 -29.566406 3.695312 -29.640625 3.84375 -29.640625 Z M 24.484375 -29.640625 "/></g></g><g style="fill:#b8c7ff;fill-opacity:1;"><g transform="translate(103.944407, 196.499987)"><path style="stroke:none" d="M 27.671875 -29.578125 C 27.835938 -29.578125 28.050781 -29.507812 28.3125 -29.375 C 28.582031 -29.238281 28.71875 -28.898438 28.71875 -28.359375 L 28.71875 -25.546875 C 28.71875 -24.953125 28.582031 -24.585938 28.3125 -24.453125 C 28.050781 -24.328125 27.835938 -24.265625 27.671875 -24.265625 L 18.453125 -24.265625 L 18.453125 -1.21875 C 18.453125 -0.664062 18.320312 -0.320312 18.0625 -0.1875 C 17.8125 -0.0625 17.601562 0 17.4375 0 L 14.140625 0 C 13.992188 0 13.789062 -0.0625 13.53125 -0.1875 C 13.269531 -0.320312 13.140625 -0.664062 13.140625 -1.21875 L 13.140625 -24.265625 L 3.90625 -24.265625 C 3.738281 -24.265625 3.523438 -24.328125 3.265625 -24.453125 C 3.003906 -24.585938 2.875 -24.953125 2.875 -25.546875 L 2.875 -28.359375 C 2.875 -28.898438 3.003906 -29.238281 3.265625 -29.375 C 3.523438 -29.507812 3.738281 -29.578125 3.90625 -29.578125 Z M 27.671875 -29.578125 "/></g></g><g style="fill:#b8c7ff;fill-opacity:1;"><g transform="translate(144.685863, 196.499987)"><path style="stroke:none" d="M 22.109375 -26.234375 L 32.1875 -1.359375 C 32.332031 -1.023438 32.367188 -0.738281 32.296875 -0.5 C 32.273438 -0.40625 32.207031 -0.289062 32.09375 -0.15625 C 31.988281 -0.03125 31.796875 0.03125 31.515625 0.03125 L 27.671875 0.03125 C 27.171875 0.03125 26.820312 -0.226562 26.625 -0.75 L 17.734375 -22.96875 C 17.703125 -23.019531 17.6875 -23.046875 17.6875 -23.046875 L 17.546875 -23.046875 C 17.546875 -23.046875 17.539062 -23.035156 17.53125 -23.015625 C 17.519531 -23.003906 17.503906 -22.976562 17.484375 -22.9375 L 12.890625 -11.3125 L 17.328125 -11.3125 C 17.835938 -11.3125 18.1875 -11.070312 18.375 -10.59375 L 19.671875 -7.390625 C 19.785156 -6.984375 19.738281 -6.640625 19.53125 -6.359375 C 19.332031 -6.015625 19.019531 -5.84375 18.59375 -5.84375 L 10.734375 -5.84375 L 8.6875 -0.71875 C 8.488281 -0.21875 8.15625 0.03125 7.6875 0.03125 L 3.734375 0.03125 C 3.441406 0.03125 3.242188 -0.03125 3.140625 -0.15625 C 3.035156 -0.289062 2.96875 -0.40625 2.9375 -0.5 C 2.863281 -0.71875 2.890625 -1.003906 3.015625 -1.359375 L 13.03125 -26.234375 C 13.507812 -27.503906 14.035156 -28.378906 14.609375 -28.859375 C 14.679688 -28.898438 14.765625 -28.957031 14.859375 -29.03125 C 14.953125 -29.101562 15.046875 -29.164062 15.140625 -29.21875 C 15.859375 -29.71875 16.6875 -29.96875 17.625 -29.96875 C 18.601562 -29.96875 19.488281 -29.664062 20.28125 -29.0625 C 21.070312 -28.46875 21.609375 -27.707031 21.890625 -26.78125 C 21.941406 -26.707031 21.984375 -26.617188 22.015625 -26.515625 C 22.054688 -26.421875 22.085938 -26.328125 22.109375 -26.234375 Z M 22.109375 -26.234375 "/></g></g><g style="fill:#b8c7ff;fill-opacity:1;"><g transform="translate(189.088559, 196.499987)"><path style="stroke:none" d="M 23.578125 -5.3125 C 23.742188 -5.3125 23.953125 -5.238281 24.203125 -5.09375 C 24.453125 -4.945312 24.578125 -4.601562 24.578125 -4.0625 L 24.578125 -1.21875 C 24.578125 -0.664062 24.453125 -0.316406 24.203125 -0.171875 C 23.953125 -0.0351562 23.742188 0.03125 23.578125 0.03125 L 11.734375 0.03125 C 10.160156 0.03125 8.820312 -0.171875 7.71875 -0.578125 C 6.59375 -0.960938 5.660156 -1.628906 4.921875 -2.578125 C 4.222656 -3.441406 3.707031 -4.613281 3.375 -6.09375 C 3.039062 -7.5625 2.875 -9.273438 2.875 -11.234375 L 2.875 -28.3125 C 2.875 -28.882812 3.003906 -29.238281 3.265625 -29.375 C 3.523438 -29.507812 3.738281 -29.578125 3.90625 -29.578125 L 7.21875 -29.578125 C 7.351562 -29.578125 7.550781 -29.507812 7.8125 -29.375 C 8.082031 -29.238281 8.21875 -28.882812 8.21875 -28.3125 L 8.21875 -10.625 C 8.21875 -10.09375 8.226562 -9.597656 8.25 -9.140625 C 8.28125 -8.691406 8.328125 -8.289062 8.390625 -7.9375 C 8.492188 -7.289062 8.703125 -6.765625 9.015625 -6.359375 C 9.253906 -5.972656 9.597656 -5.707031 10.046875 -5.5625 C 10.523438 -5.394531 11.148438 -5.3125 11.921875 -5.3125 Z M 23.578125 -5.3125 "/></g></g><g style="fill:#d9d9d9;fill-opacity:1;"><g transform="translate(225.713049, 196.499987)"><path style="stroke:none" d="M 29.4375 -29.578125 C 29.738281 -29.578125 29.953125 -29.421875 30.078125 -29.109375 C 30.148438 -28.816406 30.113281 -28.539062 29.96875 -28.28125 L 19.09375 -9.078125 L 19.09375 -1.21875 C 19.09375 -0.664062 18.957031 -0.320312 18.6875 -0.1875 C 18.425781 -0.0625 18.226562 0 18.09375 0 L 14.78125 0 C 14.644531 0 14.441406 -0.0625 14.171875 -0.1875 C 13.910156 -0.320312 13.78125 -0.664062 13.78125 -1.21875 L 13.78125 -9.078125 L 3.015625 -28.28125 C 2.867188 -28.539062 2.832031 -28.804688 2.90625 -29.078125 C 2.976562 -29.410156 3.191406 -29.578125 3.546875 -29.578125 L 7.640625 -29.578125 C 7.804688 -29.578125 7.984375 -29.535156 8.171875 -29.453125 C 8.367188 -29.367188 8.539062 -29.179688 8.6875 -28.890625 L 16.515625 -14.53125 L 24.40625 -28.921875 C 24.550781 -29.191406 24.71875 -29.367188 24.90625 -29.453125 C 25.09375 -29.535156 25.273438 -29.578125 25.453125 -29.578125 Z M 29.4375 -29.578125 "/></g></g><g style="fill:#d9d9d9;fill-opacity:1;"><g transform="translate(267.854392, 196.499987)"><path style="stroke:none" d="M 7.171875 -29.578125 C 7.316406 -29.578125 7.519531 -29.503906 7.78125 -29.359375 C 8.050781 -29.210938 8.1875 -28.863281 8.1875 -28.3125 L 8.1875 -1.21875 C 8.1875 -0.664062 8.050781 -0.316406 7.78125 -0.171875 C 7.519531 -0.0351562 7.316406 0.03125 7.171875 0.03125 L 3.875 0.03125 C 3.726562 0.03125 3.523438 -0.0351562 3.265625 -0.171875 C 3.003906 -0.316406 2.875 -0.664062 2.875 -1.21875 L 2.875 -28.3125 C 2.875 -28.863281 3.003906 -29.210938 3.265625 -29.359375 C 3.523438 -29.503906 3.726562 -29.578125 3.875 -29.578125 Z M 7.171875 -29.578125 "/></g></g><g style="fill:#d9d9d9;fill-opacity:1;"><g transform="translate(288.064153, 196.499987)"><path style="stroke:none" d="M 24.796875 -29.578125 C 24.941406 -29.578125 25.144531 -29.503906 25.40625 -29.359375 C 25.675781 -29.210938 25.8125 -28.863281 25.8125 -28.3125 L 25.8125 -25.546875 C 25.8125 -24.972656 25.675781 -24.613281 25.40625 -24.46875 C 25.144531 -24.332031 24.941406 -24.265625 24.796875 -24.265625 L 11.921875 -24.265625 C 11.109375 -24.265625 10.484375 -24.179688 10.046875 -24.015625 C 9.617188 -23.867188 9.257812 -23.601562 8.96875 -23.21875 C 8.707031 -22.863281 8.503906 -22.335938 8.359375 -21.640625 C 8.316406 -21.304688 8.273438 -20.914062 8.234375 -20.46875 C 8.203125 -20.03125 8.1875 -19.535156 8.1875 -18.984375 L 8.1875 -10.625 C 8.1875 -10.09375 8.203125 -9.597656 8.234375 -9.140625 C 8.273438 -8.691406 8.316406 -8.289062 8.359375 -7.9375 C 8.429688 -7.59375 8.515625 -7.289062 8.609375 -7.03125 C 8.703125 -6.769531 8.820312 -6.546875 8.96875 -6.359375 C 9.257812 -5.972656 9.617188 -5.707031 10.046875 -5.5625 C 10.484375 -5.394531 11.109375 -5.3125 11.921875 -5.3125 L 24.796875 -5.3125 C 24.941406 -5.3125 25.144531 -5.238281 25.40625 -5.09375 C 25.675781 -4.945312 25.8125 -4.601562 25.8125 -4.0625 L 25.8125 -1.21875 C 25.8125 -0.664062 25.675781 -0.316406 25.40625 -0.171875 C 25.144531 -0.0351562 24.941406 0.03125 24.796875 0.03125 L 11.734375 0.03125 C 10.179688 0.03125 8.832031 -0.171875 7.6875 -0.578125 C 6.582031 -0.960938 5.660156 -1.617188 4.921875 -2.546875 C 4.171875 -3.503906 3.644531 -4.675781 3.34375 -6.0625 C 3.175781 -6.78125 3.054688 -7.566406 2.984375 -8.421875 C 2.910156 -9.285156 2.875 -10.222656 2.875 -11.234375 L 2.875 -18.34375 C 2.875 -19.320312 2.910156 -20.238281 2.984375 -21.09375 C 3.054688 -21.957031 3.175781 -22.738281 3.34375 -23.4375 C 3.644531 -24.875 4.171875 -26.046875 4.921875 -26.953125 C 5.609375 -27.859375 6.53125 -28.53125 7.6875 -28.96875 C 8.832031 -29.375 10.179688 -29.578125 11.734375 -29.578125 Z M 24.796875 -29.578125 "/></g></g><g style="fill:#d9d9d9;fill-opacity:1;"><g transform="translate(325.898147, 196.499987)"><path style="stroke:none" d="M 20.203125 -17.65625 C 22.066406 -17.65625 23.492188 -17 24.484375 -15.6875 C 25.410156 -14.394531 25.875 -12.578125 25.875 -10.234375 L 25.875 -7.078125 C 25.875 -5.015625 25.421875 -3.328125 24.515625 -2.015625 C 23.578125 -0.671875 22.117188 0 20.140625 0 L 3.953125 0 C 3.785156 0 3.566406 -0.0625 3.296875 -0.1875 C 3.035156 -0.320312 2.90625 -0.664062 2.90625 -1.21875 L 2.90625 -4.09375 C 2.90625 -4.644531 3.035156 -4.984375 3.296875 -5.109375 C 3.566406 -5.242188 3.785156 -5.3125 3.953125 -5.3125 L 19.265625 -5.3125 C 19.578125 -5.3125 19.800781 -5.363281 19.9375 -5.46875 C 20.070312 -5.582031 20.175781 -5.6875 20.25 -5.78125 C 20.457031 -6.132812 20.5625 -6.632812 20.5625 -7.28125 L 20.5625 -10.375 C 20.5625 -11.257812 20.414062 -11.804688 20.125 -12.015625 C 19.84375 -12.234375 19.570312 -12.34375 19.3125 -12.34375 L 8.546875 -12.34375 C 7.796875 -12.34375 7.03125 -12.4375 6.25 -12.625 C 5.476562 -12.820312 4.816406 -13.289062 4.265625 -14.03125 C 3.335938 -15.34375 2.875 -17.257812 2.875 -19.78125 L 2.875 -22.5 C 2.875 -24.601562 3.335938 -26.300781 4.265625 -27.59375 C 5.203125 -28.914062 6.648438 -29.578125 8.609375 -29.578125 L 24.078125 -29.578125 C 24.222656 -29.578125 24.425781 -29.507812 24.6875 -29.375 C 24.957031 -29.238281 25.09375 -28.898438 25.09375 -28.359375 L 25.09375 -25.484375 C 25.09375 -24.929688 24.957031 -24.585938 24.6875 -24.453125 C 24.425781 -24.328125 24.222656 -24.265625 24.078125 -24.265625 L 9.46875 -24.265625 C 9.164062 -24.265625 8.945312 -24.210938 8.8125 -24.109375 C 8.675781 -24.015625 8.570312 -23.910156 8.5 -23.796875 C 8.3125 -23.410156 8.21875 -22.90625 8.21875 -22.28125 L 8.21875 -19.625 C 8.21875 -18.738281 8.351562 -18.1875 8.625 -17.96875 C 8.90625 -17.757812 9.175781 -17.65625 9.4375 -17.65625 Z M 20.203125 -17.65625 "/></g></g></g></svg>