<svg xmlns="http://www.w3.org/2000/svg" xmlns:xlink="http://www.w3.org/1999/xlink" width="500" zoomAndPan="magnify" viewBox="0 0 375 374.999991" height="500" preserveAspectRatio="xMidYMid meet" version="1.2"><g id="be8560aa85"><rect x="0" width="375" y="0" height="374.999991" style="fill:#ffffff;fill-opacity:1;stroke:none;"/><rect x="0" width="375" y="0" height="374.999991" style="fill:#ffffff;fill-opacity:1;stroke:none;"/><path style=" stroke:none;fill-rule:nonzero;fill:#ffffff;fill-opacity:1;" d="M 65.574219 169.0625 C 66.644531 169.0625 67.371094 169.410156 67.757812 170.097656 C 68.097656 170.695312 68.273438 171.734375 68.273438 173.21875 L 68.273438 194.464844 C 68.273438 194.960938 68.152344 195.273438 67.910156 195.402344 C 67.675781 195.527344 67.484375 195.585938 67.335938 195.585938 L 64.578125 195.585938 C 64.445312 195.585938 64.261719 195.527344 64.019531 195.402344 C 63.785156 195.273438 63.667969 194.960938 63.667969 194.464844 L 63.667969 175.136719 C 63.667969 175.117188 63.667969 175.105469 63.667969 175.09375 C 63.667969 175.085938 63.667969 175.082031 63.667969 175.082031 L 63.515625 175.082031 C 63.464844 175.082031 63.445312 175.101562 63.445312 175.136719 L 57.917969 188.769531 C 57.699219 189.441406 57.476562 190.023438 57.246094 190.503906 C 57.132812 190.75 57.007812 190.964844 56.867188 191.164062 C 56.726562 191.351562 56.59375 191.527344 56.476562 191.695312 C 56.148438 192.039062 55.804688 192.277344 55.441406 192.410156 C 55.09375 192.542969 54.664062 192.605469 54.152344 192.605469 L 52.835938 192.605469 C 52.367188 192.605469 51.941406 192.542969 51.546875 192.410156 C 51.359375 192.34375 51.183594 192.246094 51.015625 192.113281 C 50.855469 191.984375 50.695312 191.84375 50.527344 191.695312 C 50.246094 191.359375 49.988281 190.964844 49.757812 190.503906 C 49.539062 190.023438 49.3125 189.441406 49.070312 188.769531 L 43.585938 175.179688 C 43.554688 175.117188 43.523438 175.082031 43.488281 175.082031 L 43.320312 175.082031 C 43.320312 175.082031 43.320312 175.085938 43.320312 175.09375 C 43.320312 175.105469 43.320312 175.117188 43.320312 175.136719 L 43.320312 194.464844 C 43.320312 194.960938 43.207031 195.273438 42.984375 195.402344 C 42.757812 195.527344 42.570312 195.585938 42.421875 195.585938 L 39.652344 195.585938 C 39.5 195.585938 39.308594 195.527344 39.078125 195.402344 C 38.84375 195.273438 38.726562 194.960938 38.726562 194.464844 L 38.726562 173.21875 C 38.726562 171.734375 38.898438 170.695312 39.246094 170.097656 C 39.628906 169.410156 40.367188 169.0625 41.457031 169.0625 L 44.410156 169.0625 C 44.886719 169.0625 45.265625 169.105469 45.542969 169.1875 C 45.90625 169.300781 46.207031 169.464844 46.441406 169.679688 C 46.550781 169.8125 46.664062 169.949219 46.777344 170.097656 C 46.894531 170.25 47 170.417969 47.082031 170.617188 C 47.167969 170.804688 47.253906 171.023438 47.351562 171.273438 C 47.449219 171.519531 47.546875 171.789062 47.628906 172.085938 L 53.285156 186.292969 C 53.3125 186.359375 53.332031 186.398438 53.355469 186.417969 C 53.371094 186.429688 53.382812 186.433594 53.382812 186.433594 L 53.703125 186.433594 C 53.75 186.433594 53.78125 186.386719 53.800781 186.292969 L 59.5 172.085938 C 59.601562 171.789062 59.695312 171.519531 59.777344 171.273438 C 59.863281 171.023438 59.949219 170.804688 60.042969 170.617188 C 60.144531 170.417969 60.246094 170.25 60.351562 170.097656 C 60.464844 169.949219 60.578125 169.8125 60.6875 169.679688 C 60.941406 169.445312 61.226562 169.28125 61.554688 169.1875 C 61.824219 169.105469 62.199219 169.0625 62.675781 169.0625 Z M 65.574219 169.0625 "/><path style=" stroke:none;fill-rule:nonzero;fill:#ffffff;fill-opacity:1;" d="M 100.9375 189.804688 C 101.085938 189.804688 101.277344 189.867188 101.511719 189.988281 C 101.753906 190.097656 101.875 190.402344 101.875 190.898438 L 101.875 194.4375 C 101.875 194.925781 101.753906 195.230469 101.511719 195.347656 C 101.277344 195.46875 101.085938 195.53125 100.9375 195.53125 L 89.53125 195.53125 C 88.820312 195.53125 88.160156 195.488281 87.554688 195.402344 C 86.957031 195.3125 86.414062 195.171875 85.933594 194.984375 C 84.875 194.621094 84.035156 194.027344 83.414062 193.207031 C 82.769531 192.375 82.3125 191.328125 82.042969 190.058594 C 81.929688 189.523438 81.835938 188.9375 81.761719 188.292969 C 81.683594 187.648438 81.640625 186.957031 81.621094 186.207031 L 81.621094 186.039062 L 81.679688 181.996094 C 81.742188 181.753906 81.863281 181.484375 82.042969 181.183594 C 82.507812 180.355469 83.234375 179.90625 84.226562 179.839844 L 100.8125 179.796875 C 100.941406 179.796875 101.121094 179.859375 101.355469 179.980469 C 101.585938 180.101562 101.707031 180.410156 101.707031 180.902344 L 101.707031 183.4375 C 101.707031 183.933594 101.585938 184.246094 101.355469 184.375 C 101.121094 184.496094 100.941406 184.554688 100.8125 184.554688 L 86.4375 184.554688 C 86.4375 184.554688 86.429688 184.679688 86.421875 184.921875 C 86.410156 185.15625 86.402344 185.421875 86.394531 185.71875 C 86.382812 186.019531 86.378906 186.289062 86.378906 186.53125 C 86.378906 186.765625 86.378906 186.878906 86.378906 186.878906 C 86.398438 186.964844 86.410156 187.058594 86.410156 187.160156 C 86.410156 187.253906 86.414062 187.339844 86.4375 187.425781 C 86.519531 188.023438 86.703125 188.503906 86.984375 188.867188 C 87.242188 189.195312 87.5625 189.433594 87.949219 189.582031 C 88.191406 189.648438 88.441406 189.703125 88.703125 189.75 C 88.972656 189.789062 89.28125 189.804688 89.628906 189.804688 Z M 84.449219 180.089844 Z M 100.980469 169.007812 C 101.097656 169.007812 101.277344 169.074219 101.511719 169.203125 C 101.753906 169.324219 101.875 169.632812 101.875 170.125 L 101.875 172.671875 C 101.875 173.160156 101.753906 173.46875 101.511719 173.597656 C 101.277344 173.730469 101.097656 173.792969 100.980469 173.792969 L 82.488281 173.765625 C 82.355469 173.765625 82.179688 173.707031 81.957031 173.582031 C 81.734375 173.464844 81.621094 173.160156 81.621094 172.671875 L 81.621094 170.152344 C 81.621094 169.644531 81.734375 169.324219 81.957031 169.203125 C 82.179688 169.074219 82.355469 169.007812 82.488281 169.007812 Z M 100.980469 169.007812 "/><path style=" stroke:none;fill-rule:nonzero;fill:#ffffff;fill-opacity:1;" d="M 137.4375 169.0625 C 137.582031 169.0625 137.773438 169.125 138.011719 169.242188 C 138.25 169.367188 138.375 169.671875 138.375 170.152344 L 138.375 172.671875 C 138.375 173.203125 138.25 173.535156 138.011719 173.652344 C 137.773438 173.765625 137.582031 173.820312 137.4375 173.820312 L 129.179688 173.820312 L 129.179688 194.464844 C 129.179688 194.960938 129.058594 195.269531 128.828125 195.390625 C 128.605469 195.5 128.414062 195.558594 128.269531 195.558594 L 125.316406 195.558594 C 125.183594 195.558594 125 195.5 124.769531 195.390625 C 124.535156 195.269531 124.417969 194.960938 124.417969 194.464844 L 124.417969 173.820312 L 116.148438 173.820312 C 115.996094 173.820312 115.804688 173.765625 115.574219 173.652344 C 115.339844 173.535156 115.222656 173.203125 115.222656 172.671875 L 115.222656 170.152344 C 115.222656 169.671875 115.339844 169.367188 115.574219 169.242188 C 115.804688 169.125 115.996094 169.0625 116.148438 169.0625 Z M 137.4375 169.0625 "/><path style=" stroke:none;fill-rule:nonzero;fill:#ffffff;fill-opacity:1;" d="M 168.949219 172.058594 L 177.976562 194.339844 C 178.105469 194.640625 178.136719 194.894531 178.074219 195.109375 C 178.054688 195.195312 177.992188 195.296875 177.890625 195.417969 C 177.796875 195.53125 177.625 195.585938 177.375 195.585938 L 173.929688 195.585938 C 173.484375 195.585938 173.167969 195.355469 172.992188 194.886719 L 165.03125 174.984375 C 165 174.9375 164.988281 174.914062 164.988281 174.914062 L 164.863281 174.914062 C 164.863281 174.914062 164.855469 174.921875 164.847656 174.941406 C 164.835938 174.949219 164.824219 174.976562 164.804688 175.011719 L 160.691406 185.425781 L 164.664062 185.425781 C 165.121094 185.425781 165.433594 185.640625 165.601562 186.066406 L 166.765625 188.9375 C 166.867188 189.300781 166.824219 189.609375 166.640625 189.859375 C 166.460938 190.167969 166.179688 190.324219 165.800781 190.324219 L 158.757812 190.324219 L 156.925781 194.914062 C 156.746094 195.363281 156.449219 195.585938 156.03125 195.585938 L 152.488281 195.585938 C 152.226562 195.585938 152.046875 195.53125 151.957031 195.417969 C 151.863281 195.296875 151.804688 195.195312 151.773438 195.109375 C 151.707031 194.914062 151.734375 194.660156 151.84375 194.339844 L 160.816406 172.058594 C 161.242188 170.921875 161.714844 170.136719 162.230469 169.707031 C 162.292969 169.671875 162.371094 169.617188 162.453125 169.550781 C 162.539062 169.488281 162.621094 169.433594 162.707031 169.382812 C 163.351562 168.9375 164.089844 168.710938 164.929688 168.710938 C 165.804688 168.710938 166.601562 168.984375 167.3125 169.523438 C 168.019531 170.054688 168.5 170.738281 168.753906 171.566406 C 168.796875 171.632812 168.835938 171.714844 168.863281 171.804688 C 168.898438 171.890625 168.925781 171.972656 168.949219 172.058594 Z M 168.949219 172.058594 "/><path style=" stroke:none;fill-rule:nonzero;fill:#ffffff;fill-opacity:1;" d="M 210.039062 190.796875 C 210.1875 190.796875 210.375 190.863281 210.597656 190.996094 C 210.824219 191.128906 210.933594 191.433594 210.933594 191.917969 L 210.933594 194.464844 C 210.933594 194.960938 210.824219 195.273438 210.597656 195.402344 C 210.375 195.527344 210.1875 195.585938 210.039062 195.585938 L 199.429688 195.585938 C 198.019531 195.585938 196.820312 195.402344 195.832031 195.039062 C 194.824219 194.695312 193.988281 194.097656 193.328125 193.25 C 192.699219 192.476562 192.238281 191.425781 191.941406 190.097656 C 191.640625 188.78125 191.492188 187.25 191.492188 185.492188 L 191.492188 170.195312 C 191.492188 169.683594 191.609375 169.367188 191.84375 169.242188 C 192.074219 169.125 192.265625 169.0625 192.417969 169.0625 L 195.386719 169.0625 C 195.503906 169.0625 195.683594 169.125 195.917969 169.242188 C 196.160156 169.367188 196.28125 169.683594 196.28125 170.195312 L 196.28125 186.039062 C 196.28125 186.515625 196.289062 186.960938 196.308594 187.371094 C 196.335938 187.773438 196.378906 188.132812 196.433594 188.445312 C 196.527344 189.027344 196.714844 189.496094 196.996094 189.859375 C 197.207031 190.207031 197.515625 190.445312 197.917969 190.574219 C 198.34375 190.726562 198.90625 190.796875 199.597656 190.796875 Z M 210.039062 190.796875 "/><path style=" stroke:none;fill-rule:nonzero;fill:#ffffff;fill-opacity:1;" d="M 248.09375 169.0625 C 248.363281 169.0625 248.558594 169.203125 248.667969 169.480469 C 248.734375 169.746094 248.699219 169.992188 248.570312 170.222656 L 238.828125 187.425781 L 238.828125 194.464844 C 238.828125 194.960938 238.707031 195.269531 238.464844 195.390625 C 238.230469 195.5 238.054688 195.558594 237.933594 195.558594 L 234.96875 195.558594 C 234.84375 195.558594 234.664062 195.5 234.421875 195.390625 C 234.1875 195.269531 234.070312 194.960938 234.070312 194.464844 L 234.070312 187.425781 L 224.425781 170.222656 C 224.292969 169.992188 224.261719 169.753906 224.328125 169.511719 C 224.390625 169.210938 224.585938 169.0625 224.902344 169.0625 L 228.570312 169.0625 C 228.71875 169.0625 228.878906 169.101562 229.046875 169.175781 C 229.222656 169.25 229.375 169.417969 229.507812 169.679688 L 236.519531 182.539062 L 243.589844 169.648438 C 243.71875 169.410156 243.867188 169.25 244.035156 169.175781 C 244.203125 169.101562 244.367188 169.0625 244.527344 169.0625 Z M 248.09375 169.0625 "/><path style=" stroke:none;fill-rule:nonzero;fill:#ffffff;fill-opacity:1;" d="M 265.898438 169.0625 C 266.03125 169.0625 266.210938 169.128906 266.445312 169.257812 C 266.6875 169.390625 266.808594 169.703125 266.808594 170.195312 L 266.808594 194.464844 C 266.808594 194.960938 266.6875 195.273438 266.445312 195.402344 C 266.210938 195.527344 266.03125 195.585938 265.898438 195.585938 L 262.945312 195.585938 C 262.8125 195.585938 262.632812 195.527344 262.402344 195.402344 C 262.167969 195.273438 262.050781 194.960938 262.050781 194.464844 L 262.050781 170.195312 C 262.050781 169.703125 262.167969 169.390625 262.402344 169.257812 C 262.632812 169.128906 262.8125 169.0625 262.945312 169.0625 Z M 265.898438 169.0625 "/><path style=" stroke:none;fill-rule:nonzero;fill:#ffffff;fill-opacity:1;" d="M 299.792969 169.0625 C 299.921875 169.0625 300.101562 169.128906 300.335938 169.257812 C 300.578125 169.390625 300.703125 169.703125 300.703125 170.195312 L 300.703125 172.671875 C 300.703125 173.1875 300.578125 173.507812 300.335938 173.640625 C 300.101562 173.761719 299.921875 173.820312 299.792969 173.820312 L 288.257812 173.820312 C 287.53125 173.820312 286.96875 173.898438 286.578125 174.042969 C 286.195312 174.175781 285.871094 174.414062 285.613281 174.757812 C 285.378906 175.078125 285.195312 175.550781 285.066406 176.171875 C 285.027344 176.472656 284.988281 176.824219 284.957031 177.222656 C 284.925781 177.613281 284.914062 178.058594 284.914062 178.550781 L 284.914062 186.039062 C 284.914062 186.515625 284.925781 186.960938 284.957031 187.371094 C 284.988281 187.773438 285.027344 188.132812 285.066406 188.445312 C 285.128906 188.753906 285.207031 189.027344 285.292969 189.257812 C 285.375 189.492188 285.480469 189.691406 285.613281 189.859375 C 285.871094 190.207031 286.195312 190.445312 286.578125 190.574219 C 286.96875 190.726562 287.53125 190.796875 288.257812 190.796875 L 299.792969 190.796875 C 299.921875 190.796875 300.101562 190.863281 300.335938 190.996094 C 300.578125 191.128906 300.703125 191.433594 300.703125 191.917969 L 300.703125 194.464844 C 300.703125 194.960938 300.578125 195.273438 300.335938 195.402344 C 300.101562 195.527344 299.921875 195.585938 299.792969 195.585938 L 288.089844 195.585938 C 286.699219 195.585938 285.492188 195.402344 284.464844 195.039062 C 283.476562 194.695312 282.648438 194.109375 281.988281 193.277344 C 281.316406 192.417969 280.84375 191.367188 280.574219 190.125 C 280.421875 189.484375 280.316406 188.78125 280.253906 188.011719 C 280.1875 187.238281 280.15625 186.398438 280.15625 185.492188 L 280.15625 179.125 C 280.15625 178.25 280.1875 177.429688 280.253906 176.664062 C 280.316406 175.890625 280.421875 175.1875 280.574219 174.5625 C 280.84375 173.273438 281.316406 172.226562 281.988281 171.414062 C 282.605469 170.601562 283.429688 170 284.464844 169.609375 C 285.492188 169.242188 286.699219 169.0625 288.089844 169.0625 Z M 299.792969 169.0625 "/><path style=" stroke:none;fill-rule:nonzero;fill:#ffffff;fill-opacity:1;" d="M 329.566406 179.742188 C 331.238281 179.742188 332.515625 180.328125 333.402344 181.503906 C 334.230469 182.664062 334.648438 184.289062 334.648438 186.390625 L 334.648438 189.21875 C 334.648438 191.066406 334.242188 192.578125 333.429688 193.75 C 332.589844 194.957031 331.28125 195.558594 329.511719 195.558594 L 315.011719 195.558594 C 314.859375 195.558594 314.664062 195.5 314.421875 195.390625 C 314.1875 195.269531 314.074219 194.960938 314.074219 194.464844 L 314.074219 191.890625 C 314.074219 191.398438 314.1875 191.09375 314.421875 190.980469 C 314.664062 190.863281 314.859375 190.796875 315.011719 190.796875 L 328.726562 190.796875 C 329.007812 190.796875 329.207031 190.753906 329.328125 190.660156 C 329.449219 190.558594 329.542969 190.460938 329.609375 190.378906 C 329.796875 190.0625 329.890625 189.617188 329.890625 189.035156 L 329.890625 186.265625 C 329.890625 185.472656 329.757812 184.984375 329.496094 184.792969 C 329.246094 184.597656 329 184.5 328.769531 184.5 L 319.125 184.5 C 318.453125 184.5 317.769531 184.417969 317.070312 184.25 C 316.375 184.074219 315.785156 183.652344 315.289062 182.988281 C 314.457031 181.8125 314.046875 180.097656 314.046875 177.835938 L 314.046875 175.402344 C 314.046875 173.519531 314.457031 171.996094 315.289062 170.839844 C 316.128906 169.65625 317.425781 169.0625 319.183594 169.0625 L 333.039062 169.0625 C 333.167969 169.0625 333.351562 169.125 333.585938 169.242188 C 333.824219 169.367188 333.949219 169.671875 333.949219 170.152344 L 333.949219 172.730469 C 333.949219 173.226562 333.824219 173.535156 333.585938 173.652344 C 333.351562 173.765625 333.167969 173.820312 333.039062 173.820312 L 319.953125 173.820312 C 319.679688 173.820312 319.484375 173.871094 319.363281 173.960938 C 319.242188 174.042969 319.148438 174.140625 319.085938 174.242188 C 318.917969 174.585938 318.832031 175.039062 318.832031 175.597656 L 318.832031 177.976562 C 318.832031 178.773438 318.949219 179.265625 319.195312 179.460938 C 319.449219 179.652344 319.6875 179.742188 319.925781 179.742188 Z M 329.566406 179.742188 "/><path style=" stroke:none;fill-rule:nonzero;fill:#ffffff;fill-opacity:1;" d="M 59.824219 216.523438 L 59.824219 215.683594 L 60.71875 215.683594 L 60.71875 209.960938 L 59.824219 209.960938 L 59.824219 209.121094 L 62.539062 209.121094 L 62.539062 209.960938 L 61.628906 209.960938 L 61.628906 215.683594 L 62.539062 215.683594 L 62.539062 216.523438 Z M 59.824219 216.523438 "/><path style=" stroke:none;fill-rule:nonzero;fill:#ffffff;fill-opacity:1;" d="M 66.652344 216.523438 L 66.652344 211.261719 L 67.535156 211.261719 L 67.535156 212.214844 L 68.445312 211.261719 L 70.390625 211.261719 L 71.441406 212.324219 L 71.441406 216.523438 L 70.542969 216.523438 L 70.542969 212.550781 L 70.011719 211.976562 L 68.683594 211.976562 L 67.535156 213.136719 L 67.535156 216.523438 Z M 66.652344 216.523438 "/><path style=" stroke:none;fill-rule:nonzero;fill:#ffffff;fill-opacity:1;" d="M 76.675781 216.523438 L 75.75 215.613281 L 75.75 211.976562 L 75.207031 211.976562 L 75.207031 211.261719 L 75.78125 211.261719 L 75.988281 209.917969 L 76.632812 209.917969 L 76.632812 211.261719 L 77.753906 211.261719 L 77.753906 211.976562 L 76.632812 211.976562 L 76.632812 215.292969 L 77.109375 215.796875 L 77.992188 215.796875 L 77.992188 216.523438 Z M 76.675781 216.523438 "/><path style=" stroke:none;fill-rule:nonzero;fill:#ffffff;fill-opacity:1;" d="M 82.664062 216.523438 L 81.597656 215.472656 L 81.597656 212.324219 L 82.664062 211.261719 L 85 211.261719 L 86.050781 212.324219 L 86.050781 214.230469 L 82.480469 214.230469 L 82.480469 215.234375 L 83.039062 215.796875 L 85.964844 215.796875 L 85.964844 216.523438 Z M 82.480469 213.515625 L 85.167969 213.515625 L 85.167969 212.519531 L 84.621094 211.976562 L 83.039062 211.976562 L 82.480469 212.519531 Z M 82.480469 213.515625 "/><path style=" stroke:none;fill-rule:nonzero;fill:#ffffff;fill-opacity:1;" d="M 90.246094 209.121094 L 91.128906 209.121094 L 91.128906 216.523438 L 90.246094 216.523438 Z M 90.246094 209.121094 "/><path style=" stroke:none;fill-rule:nonzero;fill:#ffffff;fill-opacity:1;" d="M 95.429688 210.703125 L 95.429688 209.511719 L 96.3125 209.511719 L 96.3125 210.703125 Z M 95.429688 216.523438 L 95.429688 211.261719 L 96.3125 211.261719 L 96.3125 216.523438 Z M 95.429688 216.523438 "/><path style=" stroke:none;fill-rule:nonzero;fill:#ffffff;fill-opacity:1;" d="M 100.910156 218.398438 L 100.910156 217.671875 L 103.738281 217.65625 L 104.296875 217.113281 L 104.296875 215.699219 L 103.484375 216.523438 L 101.554688 216.523438 L 100.492188 215.472656 L 100.492188 212.324219 L 101.554688 211.261719 L 103.484375 211.261719 L 104.296875 212.101562 L 104.296875 211.261719 L 105.179688 211.261719 L 105.179688 217.351562 L 104.117188 218.398438 Z M 103.261719 215.824219 L 104.296875 214.773438 L 104.296875 213.023438 L 103.261719 211.976562 L 101.933594 211.976562 L 101.371094 212.519531 L 101.371094 215.265625 L 101.933594 215.824219 Z M 103.261719 215.824219 "/><path style=" stroke:none;fill-rule:nonzero;fill:#ffffff;fill-opacity:1;" d="M 110.023438 210.703125 L 111.074219 209.273438 L 112.097656 209.273438 L 113.132812 210.703125 L 112.375 210.703125 L 111.605469 209.847656 L 111.5625 209.847656 L 110.78125 210.703125 Z M 110.417969 216.523438 L 109.351562 215.472656 L 109.351562 212.324219 L 110.417969 211.261719 L 112.753906 211.261719 L 113.804688 212.324219 L 113.804688 214.230469 L 110.234375 214.230469 L 110.234375 215.234375 L 110.792969 215.796875 L 113.71875 215.796875 L 113.71875 216.523438 Z M 110.234375 213.515625 L 112.921875 213.515625 L 112.921875 212.519531 L 112.375 211.976562 L 110.792969 211.976562 L 110.234375 212.519531 Z M 110.234375 213.515625 "/><path style=" stroke:none;fill-rule:nonzero;fill:#ffffff;fill-opacity:1;" d="M 118 216.523438 L 118 211.261719 L 118.882812 211.261719 L 118.882812 212.214844 L 119.792969 211.261719 L 121.738281 211.261719 L 122.785156 212.324219 L 122.785156 216.523438 L 121.890625 216.523438 L 121.890625 212.550781 L 121.359375 211.976562 L 120.027344 211.976562 L 118.882812 213.136719 L 118.882812 216.523438 Z M 118 216.523438 "/><path style=" stroke:none;fill-rule:nonzero;fill:#ffffff;fill-opacity:1;" d="M 127.980469 216.523438 L 126.917969 215.472656 L 126.917969 212.324219 L 127.980469 211.261719 L 130.375 211.261719 L 131.296875 212.183594 L 131.296875 213.011719 L 130.414062 213.011719 L 130.414062 212.480469 L 129.910156 211.976562 L 128.359375 211.976562 L 127.796875 212.519531 L 127.796875 215.222656 L 128.359375 215.796875 L 131.253906 215.796875 L 131.253906 216.523438 Z M 127.980469 216.523438 "/><path style=" stroke:none;fill-rule:nonzero;fill:#ffffff;fill-opacity:1;" d="M 135.324219 210.703125 L 135.324219 209.511719 L 136.203125 209.511719 L 136.203125 210.703125 Z M 135.324219 216.523438 L 135.324219 211.261719 L 136.203125 211.261719 L 136.203125 216.523438 Z M 135.324219 216.523438 "/><path style=" stroke:none;fill-rule:nonzero;fill:#ffffff;fill-opacity:1;" d="M 141.042969 216.523438 L 139.992188 215.472656 L 139.992188 214.269531 L 141.042969 213.222656 L 143.714844 213.222656 L 143.714844 212.5625 L 143.167969 212.015625 L 140.675781 212.015625 L 140.675781 211.261719 L 143.546875 211.261719 L 144.597656 212.324219 L 144.597656 216.523438 L 143.714844 216.523438 L 143.714844 215.710938 L 142.902344 216.523438 Z M 141.433594 215.824219 L 142.679688 215.824219 L 143.714844 214.800781 L 143.714844 213.90625 L 141.433594 213.921875 L 140.875 214.464844 L 140.875 215.265625 Z M 141.433594 215.824219 "/><path style=" stroke:none;fill-rule:nonzero;fill:#ffffff;fill-opacity:1;" d="M 153.066406 216.523438 L 155.570312 209.121094 L 156.984375 209.121094 L 159.492188 216.523438 L 158.539062 216.523438 L 157.894531 214.59375 L 154.648438 214.59375 L 154.03125 216.523438 Z M 154.925781 213.792969 L 157.644531 213.792969 L 156.398438 209.988281 L 156.160156 209.988281 Z M 154.925781 213.792969 "/><path style=" stroke:none;fill-rule:nonzero;fill:#ffffff;fill-opacity:1;" d="M 163.117188 216.523438 L 163.117188 211.261719 L 164 211.261719 L 164 212.214844 L 164.90625 211.261719 L 166.265625 211.261719 L 166.265625 212.15625 L 164.949219 212.15625 L 164 213.136719 L 164 216.523438 Z M 163.117188 216.523438 "/><path style=" stroke:none;fill-rule:nonzero;fill:#ffffff;fill-opacity:1;" d="M 171.058594 216.523438 L 170.136719 215.613281 L 170.136719 211.976562 L 169.589844 211.976562 L 169.589844 211.261719 L 170.164062 211.261719 L 170.375 209.917969 L 171.019531 209.917969 L 171.019531 211.261719 L 172.136719 211.261719 L 172.136719 211.976562 L 171.019531 211.976562 L 171.019531 215.292969 L 171.492188 215.796875 L 172.375 215.796875 L 172.375 216.523438 Z M 171.058594 216.523438 "/><path style=" stroke:none;fill-rule:nonzero;fill:#ffffff;fill-opacity:1;" d="M 176.109375 210.703125 L 176.109375 209.511719 L 176.992188 209.511719 L 176.992188 210.703125 Z M 176.109375 216.523438 L 176.109375 211.261719 L 176.992188 211.261719 L 176.992188 216.523438 Z M 176.109375 216.523438 "/><path style=" stroke:none;fill-rule:nonzero;fill:#ffffff;fill-opacity:1;" d="M 181.335938 216.523438 L 181.335938 211.976562 L 180.789062 211.976562 L 180.789062 211.261719 L 181.335938 211.261719 L 181.335938 210.042969 L 182.261719 209.121094 L 183.5625 209.121094 L 183.5625 209.847656 L 182.695312 209.847656 L 182.21875 210.335938 L 182.21875 211.261719 L 183.339844 211.261719 L 183.339844 211.976562 L 182.21875 211.976562 L 182.21875 216.523438 Z M 181.335938 216.523438 "/><path style=" stroke:none;fill-rule:nonzero;fill:#ffffff;fill-opacity:1;" d="M 187.011719 210.703125 L 187.011719 209.511719 L 187.894531 209.511719 L 187.894531 210.703125 Z M 187.011719 216.523438 L 187.011719 211.261719 L 187.894531 211.261719 L 187.894531 216.523438 Z M 187.011719 216.523438 "/><path style=" stroke:none;fill-rule:nonzero;fill:#ffffff;fill-opacity:1;" d="M 193.136719 216.523438 L 192.070312 215.472656 L 192.070312 212.324219 L 193.136719 211.261719 L 195.527344 211.261719 L 196.453125 212.183594 L 196.453125 213.011719 L 195.570312 213.011719 L 195.570312 212.480469 L 195.066406 211.976562 L 193.515625 211.976562 L 192.953125 212.519531 L 192.953125 215.222656 L 193.515625 215.796875 L 196.410156 215.796875 L 196.410156 216.523438 Z M 193.136719 216.523438 "/><path style=" stroke:none;fill-rule:nonzero;fill:#ffffff;fill-opacity:1;" d="M 200.476562 210.703125 L 200.476562 209.511719 L 201.359375 209.511719 L 201.359375 210.703125 Z M 200.476562 216.523438 L 200.476562 211.261719 L 201.359375 211.261719 L 201.359375 216.523438 Z M 200.476562 216.523438 "/><path style=" stroke:none;fill-rule:nonzero;fill:#ffffff;fill-opacity:1;" d="M 206.195312 216.523438 L 205.148438 215.472656 L 205.148438 214.269531 L 206.195312 213.222656 L 208.871094 213.222656 L 208.871094 212.5625 L 208.324219 212.015625 L 205.832031 212.015625 L 205.832031 211.261719 L 208.703125 211.261719 L 209.75 212.324219 L 209.75 216.523438 L 208.871094 216.523438 L 208.871094 215.710938 L 208.058594 216.523438 Z M 206.589844 215.824219 L 207.835938 215.824219 L 208.871094 214.800781 L 208.871094 213.90625 L 206.589844 213.921875 L 206.027344 214.464844 L 206.027344 215.265625 Z M 206.589844 215.824219 "/><path style=" stroke:none;fill-rule:nonzero;fill:#ffffff;fill-opacity:1;" d="M 214.011719 209.121094 L 214.894531 209.121094 L 214.894531 216.523438 L 214.011719 216.523438 Z M 214.011719 209.121094 "/><path style=" stroke:none;fill-rule:nonzero;fill:#ffffff;fill-opacity:1;" d="M 224.09375 216.523438 L 224.09375 211.261719 L 224.972656 211.261719 L 224.972656 212.214844 L 225.882812 211.261719 L 227.828125 211.261719 L 228.878906 212.324219 L 228.878906 216.523438 L 227.984375 216.523438 L 227.984375 212.550781 L 227.453125 211.976562 L 226.121094 211.976562 L 224.972656 213.136719 L 224.972656 216.523438 Z M 224.09375 216.523438 "/><path style=" stroke:none;fill-rule:nonzero;fill:#ffffff;fill-opacity:1;" d="M 233.710938 216.523438 L 232.660156 215.472656 L 232.660156 214.269531 L 233.710938 213.222656 L 236.382812 213.222656 L 236.382812 212.5625 L 235.835938 212.015625 L 233.34375 212.015625 L 233.34375 211.261719 L 236.214844 211.261719 L 237.265625 212.324219 L 237.265625 216.523438 L 236.382812 216.523438 L 236.382812 215.710938 L 235.570312 216.523438 Z M 234.101562 215.824219 L 235.347656 215.824219 L 236.382812 214.800781 L 236.382812 213.90625 L 234.101562 213.921875 L 233.542969 214.464844 L 233.542969 215.265625 Z M 234.101562 215.824219 "/><path style=" stroke:none;fill-rule:nonzero;fill:#ffffff;fill-opacity:1;" d="M 246.222656 216.523438 L 246.222656 215.683594 L 247.121094 215.683594 L 247.121094 209.960938 L 246.222656 209.960938 L 246.222656 209.121094 L 248.9375 209.121094 L 248.9375 209.960938 L 248.03125 209.960938 L 248.03125 215.683594 L 248.9375 215.683594 L 248.9375 216.523438 Z M 246.222656 216.523438 "/><path style=" stroke:none;fill-rule:nonzero;fill:#ffffff;fill-opacity:1;" d="M 253.050781 216.523438 L 253.050781 211.261719 L 253.933594 211.261719 L 253.933594 212.214844 L 254.84375 211.261719 L 256.789062 211.261719 L 257.839844 212.324219 L 257.839844 216.523438 L 256.941406 216.523438 L 256.941406 212.550781 L 256.410156 211.976562 L 255.082031 211.976562 L 253.933594 213.136719 L 253.933594 216.523438 Z M 253.050781 216.523438 "/><path style=" stroke:none;fill-rule:nonzero;fill:#ffffff;fill-opacity:1;" d="M 263.03125 216.523438 L 261.96875 215.472656 L 261.96875 212.324219 L 263.03125 211.261719 L 264.964844 211.261719 L 265.777344 212.101562 L 265.777344 209.121094 L 266.65625 209.121094 L 266.65625 216.523438 L 265.777344 216.523438 L 265.777344 215.699219 L 264.964844 216.523438 Z M 264.742188 215.824219 L 265.777344 214.773438 L 265.777344 213.023438 L 264.742188 211.976562 L 263.410156 211.976562 L 262.851562 212.519531 L 262.851562 215.265625 L 263.410156 215.824219 Z M 264.742188 215.824219 "/><path style=" stroke:none;fill-rule:nonzero;fill:#ffffff;fill-opacity:1;" d="M 272.859375 210.703125 L 273.828125 209.203125 L 274.847656 209.203125 L 273.601562 210.703125 Z M 271.949219 216.523438 L 270.902344 215.472656 L 270.902344 211.261719 L 271.78125 211.261719 L 271.78125 215.265625 L 272.328125 215.824219 L 273.628906 215.824219 L 274.667969 214.789062 L 274.667969 211.261719 L 275.546875 211.261719 L 275.546875 216.523438 L 274.667969 216.523438 L 274.667969 215.710938 L 273.855469 216.523438 Z M 271.949219 216.523438 "/><path style=" stroke:none;fill-rule:nonzero;fill:#ffffff;fill-opacity:1;" d="M 279.851562 216.523438 L 279.851562 215.796875 L 282.636719 215.796875 L 283.109375 215.304688 L 283.109375 214.675781 L 282.605469 214.171875 L 280.523438 214.171875 L 279.597656 213.261719 L 279.597656 212.199219 L 280.523438 211.261719 L 283.488281 211.261719 L 283.488281 212.015625 L 280.941406 212.015625 L 280.480469 212.464844 L 280.480469 212.984375 L 280.96875 213.457031 L 283.070312 213.457031 L 283.992188 214.367188 L 283.992188 215.601562 L 283.070312 216.523438 Z M 279.851562 216.523438 "/><path style=" stroke:none;fill-rule:nonzero;fill:#ffffff;fill-opacity:1;" d="M 289.027344 216.523438 L 288.105469 215.613281 L 288.105469 211.976562 L 287.558594 211.976562 L 287.558594 211.261719 L 288.132812 211.261719 L 288.34375 209.917969 L 288.988281 209.917969 L 288.988281 211.261719 L 290.105469 211.261719 L 290.105469 211.976562 L 288.988281 211.976562 L 288.988281 215.292969 L 289.460938 215.796875 L 290.34375 215.796875 L 290.34375 216.523438 Z M 289.027344 216.523438 "/><path style=" stroke:none;fill-rule:nonzero;fill:#ffffff;fill-opacity:1;" d="M 294.078125 216.523438 L 294.078125 211.261719 L 294.960938 211.261719 L 294.960938 212.214844 L 295.871094 211.261719 L 297.226562 211.261719 L 297.226562 212.15625 L 295.910156 212.15625 L 294.960938 213.136719 L 294.960938 216.523438 Z M 294.078125 216.523438 "/><path style=" stroke:none;fill-rule:nonzero;fill:#ffffff;fill-opacity:1;" d="M 300.820312 210.703125 L 300.820312 209.511719 L 301.703125 209.511719 L 301.703125 210.703125 Z M 300.820312 216.523438 L 300.820312 211.261719 L 301.703125 211.261719 L 301.703125 216.523438 Z M 300.820312 216.523438 "/><path style=" stroke:none;fill-rule:nonzero;fill:#ffffff;fill-opacity:1;" d="M 306.539062 216.523438 L 305.488281 215.472656 L 305.488281 214.269531 L 306.539062 213.222656 L 309.214844 213.222656 L 309.214844 212.5625 L 308.667969 212.015625 L 306.175781 212.015625 L 306.175781 211.261719 L 309.046875 211.261719 L 310.09375 212.324219 L 310.09375 216.523438 L 309.214844 216.523438 L 309.214844 215.710938 L 308.402344 216.523438 Z M 306.933594 215.824219 L 308.175781 215.824219 L 309.214844 214.800781 L 309.214844 213.90625 L 306.933594 213.921875 L 306.371094 214.464844 L 306.371094 215.265625 Z M 306.933594 215.824219 "/></g></svg>